# xmcd CD database file
#
# Track frame offsets:
#	150
#	22304
#	39677
#	65270
#	89436
#	90554
#	112014
#	141190
#	163284
#	186027
#
# Disc length: 2910 seconds
#
# Revision: 0
# Processed by: cddbd v1.5PL3 Copyright (c) Steve Scherf et al.
# Submitted via: CDex 1.50
#
DISCID=8d0b5c0a
DTITLE=八卦商会 - リーフデ
DYEAR=2002
DGENRE=Techno
TTITLE0=Welcommen
TTITLE1=JUMP A LITTLE HIGHER(MISSTAKE VOCAL MIX)
TTITLE2=アイが止まらない
TTITLE3=デ・ジ・猫と鬼(お年寄 MIX)
TTITLE4=ノレリノレリマツ〜ソ 
TTITLE5=二匹の雀
TTITLE6=eighth dot. pt1
TTITLE7=GABBER Ys. 
TTITLE8=ヤケッパチ(going back '98)
TTITLE9=bonus
EXTD=YEAR: 2002
EXTT0=
EXTT1=
EXTT2=
EXTT3=
EXTT4=
EXTT5=
EXTT6=
EXTT7=
EXTT8=
EXTT9=
PLAYORDER=
